<svg xmlns="http://www.w3.org/2000/svg" xmlns:xlink="http://www.w3.org/1999/xlink" version="1.1" x="0px" y="0px" viewBox="0 0 100 125" style="enable-background:new 0 0 100 100;" xml:space="preserve"><g><path d="M50,64.3L29.2,43.6c-0.4-0.4-1-0.4-1.4,0s-0.4,1,0,1.4l21.4,21.4c0.2,0.2,0.4,0.3,0.7,0.3s0.5-0.1,0.7-0.3L72.1,45   c0.2-0.2,0.3-0.5,0.3-0.7s-0.1-0.5-0.3-0.7c-0.4-0.4-1-0.4-1.4,0L50,64.3z"/><path d="M50,53.6L29.2,32.9c-0.4-0.4-1-0.4-1.4,0s-0.4,1,0,1.4l21.4,21.4c0.2,0.2,0.4,0.3,0.7,0.3s0.5-0.1,0.7-0.3l21.4-21.4   c0.2-0.2,0.3-0.5,0.3-0.7s-0.1-0.5-0.3-0.7c-0.4-0.4-1-0.4-1.4,0L50,53.6z"/></g></svg>