<svg xmlns="http://www.w3.org/2000/svg" xmlns:xlink="http://www.w3.org/1999/xlink" version="1.1" x="0px" y="0px" viewBox="0 0 100 125" style="enable-background:new 0 0 100 100;" xml:space="preserve"><g><path d="M50,35l20.7,20.7c0.4,0.4,1,0.4,1.4,0s0.4-1,0-1.4L50.7,32.9c-0.2-0.2-0.4-0.3-0.7-0.3s-0.5,0.1-0.7,0.3L27.8,54.3   c-0.2,0.2-0.3,0.5-0.3,0.7s0.1,0.5,0.3,0.7c0.4,0.4,1,0.4,1.4,0L50,35z"/><path d="M50,45.7l20.7,20.7c0.4,0.4,1,0.4,1.4,0s0.4-1,0-1.4L50.7,43.6c-0.2-0.2-0.4-0.3-0.7-0.3s-0.5,0.1-0.7,0.3L27.8,65   c-0.2,0.2-0.3,0.5-0.3,0.7s0.1,0.5,0.3,0.7c0.4,0.4,1,0.4,1.4,0L50,45.7z"/></g></svg>